name p2_grf_mean_speed_1.4
datacolumns 13
datarows 34
range 0.0000000000 0.3300000000
endheader
time	grf_x_l_mean	grf_x_l_var	grf_y_l_mean	grf_y_l_var	grf_z_l_mean	grf_z_l_var	grf_x_r_mean	grf_x_r_var	grf_y_r_mean	grf_y_r_var	grf_z_r_mean	grf_z_r_var
0.0000000000	147.8631258276	1.0000000000	697.5951289431	1.0000000000	0.0000000000	0.0000000000	11.9619938382	1.0000000000	10.8484909375	1.0000000000	0.0000000000	0.0000000000
0.0100000000	154.3643829255	1.0000000000	682.6589477193	1.0000000000	0.0000000000	0.0000000000	22.1287800655	1.0000000000	36.2181706749	1.0000000000	0.0000000000	0.0000000000
0.0200000000	158.6480995990	1.0000000000	655.7442581009	1.0000000000	0.0000000000	0.0000000000	31.7469149372	1.0000000000	75.4095313124	1.0000000000	0.0000000000	0.0000000000
0.0300000000	159.9049473254	1.0000000000	615.8726969341	1.0000000000	0.0000000000	0.0000000000	32.7781739971	1.0000000000	125.0448124929	1.0000000000	0.0000000000	0.0000000000
0.0400000000	156.5200193218	1.0000000000	562.5426172934	1.0000000000	0.0000000000	0.0000000000	21.7296804527	1.0000000000	182.4143131245	1.0000000000	0.0000000000	0.0000000000
0.0500000000	148.9707735768	1.0000000000	497.4989722997	1.0000000000	0.0000000000	0.0000000000	3.6320028475	1.0000000000	248.3888425797	1.0000000000	0.0000000000	0.0000000000
0.0600000000	136.7348213946	1.0000000000	424.0271423422	1.0000000000	0.0000000000	0.0000000000	-19.4969595104	1.0000000000	322.2787411352	1.0000000000	0.0000000000	0.0000000000
0.0700000000	118.4653003410	1.0000000000	345.7159378971	1.0000000000	0.0000000000	0.0000000000	-47.2655802378	1.0000000000	398.6331692363	1.0000000000	0.0000000000	0.0000000000
0.0800000000	96.6213047130	1.0000000000	267.6860088692	1.0000000000	0.0000000000	0.0000000000	-75.1719418218	1.0000000000	471.1597725244	1.0000000000	0.0000000000	0.0000000000
0.0900000000	72.7140862978	1.0000000000	195.9212495978	1.0000000000	0.0000000000	0.0000000000	-100.2311040547	1.0000000000	536.2908573104	1.0000000000	0.0000000000	0.0000000000
0.1000000000	49.1419376414	1.0000000000	133.8131046789	1.0000000000	0.0000000000	0.0000000000	-122.4234029757	1.0000000000	592.7661392189	1.0000000000	0.0000000000	0.0000000000
0.1100000000	29.9770260169	1.0000000000	83.1546980525	1.0000000000	0.0000000000	0.0000000000	-139.5659048931	1.0000000000	642.0230759228	1.0000000000	0.0000000000	0.0000000000
0.1200000000	16.1732513038	1.0000000000	45.5417362064	1.0000000000	0.0000000000	0.0000000000	-150.6523252855	1.0000000000	685.6950869986	1.0000000000	0.0000000000	0.0000000000
0.1300000000	7.1010294492	1.0000000000	20.2080884168	1.0000000000	0.0000000000	0.0000000000	-156.5398103912	1.0000000000	721.7017859110	1.0000000000	0.0000000000	0.0000000000
0.1400000000	2.6482859882	1.0000000000	4.6908794098	1.0000000000	0.0000000000	0.0000000000	-156.2233114287	1.0000000000	746.6151961833	1.0000000000	0.0000000000	0.0000000000
0.1500000000	0.0000000000	1.0000000000	0.0000000000	1.0000000000	0.0000000000	0.0000000000	-150.3245458058	1.0000000000	760.1555251266	1.0000000000	0.0000000000	0.0000000000
0.1600000000	0.0000000000	1.0000000000	0.0000000000	1.0000000000	0.0000000000	0.0000000000	-141.1739261234	1.0000000000	764.0080292112	1.0000000000	0.0000000000	0.0000000000
0.1700000000	0.0000000000	1.0000000000	0.0000000000	1.0000000000	0.0000000000	0.0000000000	-129.3502038647	1.0000000000	758.7260006678	1.0000000000	0.0000000000	0.0000000000
0.1800000000	0.0000000000	1.0000000000	0.0000000000	1.0000000000	0.0000000000	0.0000000000	-115.8221669185	1.0000000000	744.2332094316	1.0000000000	0.0000000000	0.0000000000
0.1900000000	0.0000000000	1.0000000000	0.0000000000	1.0000000000	0.0000000000	0.0000000000	-102.1695831276	1.0000000000	721.0950172919	1.0000000000	0.0000000000	0.0000000000
0.2000000000	0.0000000000	1.0000000000	0.0000000000	1.0000000000	0.0000000000	0.0000000000	-88.6088657360	1.0000000000	690.7698316860	1.0000000000	0.0000000000	0.0000000000
0.2100000000	0.0000000000	1.0000000000	0.0000000000	1.0000000000	0.0000000000	0.0000000000	-75.6741227658	1.0000000000	654.9253701975	1.0000000000	0.0000000000	0.0000000000
0.2200000000	0.0000000000	1.0000000000	0.0000000000	1.0000000000	0.0000000000	0.0000000000	-64.0222030060	1.0000000000	615.0996796792	1.0000000000	0.0000000000	0.0000000000
0.2300000000	0.0000000000	1.0000000000	0.0000000000	1.0000000000	0.0000000000	0.0000000000	-53.4041908902	1.0000000000	573.4764529968	1.0000000000	0.0000000000	0.0000000000
0.2400000000	0.0000000000	1.0000000000	0.0000000000	1.0000000000	0.0000000000	0.0000000000	-43.8323109453	1.0000000000	533.0605962309	1.0000000000	0.0000000000	0.0000000000
0.2500000000	0.0000000000	1.0000000000	0.0000000000	1.0000000000	0.0000000000	0.0000000000	-35.4684423703	1.0000000000	496.3341634594	1.0000000000	0.0000000000	0.0000000000
0.2600000000	0.0000000000	1.0000000000	0.0000000000	1.0000000000	0.0000000000	0.0000000000	-28.1013836538	1.0000000000	464.5504641383	1.0000000000	0.0000000000	0.0000000000
0.2700000000	0.0000000000	1.0000000000	0.0000000000	1.0000000000	0.0000000000	0.0000000000	-21.6315466227	1.0000000000	438.1350078321	1.0000000000	0.0000000000	0.0000000000
0.2800000000	0.0000000000	1.0000000000	0.0000000000	1.0000000000	0.0000000000	0.0000000000	-15.9239960809	1.0000000000	417.2920530044	1.0000000000	0.0000000000	0.0000000000
0.2900000000	0.0000000000	1.0000000000	0.0000000000	1.0000000000	0.0000000000	0.0000000000	-11.0372729454	1.0000000000	402.5960521853	1.0000000000	0.0000000000	0.0000000000
0.3000000000	0.0000000000	1.0000000000	0.0000000000	1.0000000000	0.0000000000	0.0000000000	-6.9331075959	1.0000000000	394.0289663963	1.0000000000	0.0000000000	0.0000000000
0.3100000000	0.0000000000	1.0000000000	0.0000000000	1.0000000000	0.0000000000	0.0000000000	-3.1953393195	1.0000000000	390.2280512912	1.0000000000	0.0000000000	0.0000000000
0.3200000000	0.0000000000	1.0000000000	0.0000000000	1.0000000000	0.0000000000	0.0000000000	0.2841432725	1.0000000000	390.2687687340	1.0000000000	0.0000000000	0.0000000000
0.3300000000	0.0000000000	1.0000000000	0.0000000000	1.0000000000	0.0000000000	0.0000000000	3.4794214153	1.0000000000	394.3553120044	1.0000000000	0.0000000000	0.0000000000
